<svg width="300" height="300" viewBox="0 0 300 300" fill="none" xmlns="http://www.w3.org/2000/svg">
<mask id="path-1-inside-1_1238_1806" fill="white">
<rect x="32" y="10" width="237" height="280" rx="11"/>
</mask>
<rect x="32" y="10" width="237" height="280" rx="11" stroke="#252525" stroke-width="30" mask="url(#path-1-inside-1_1238_1806)"/>
<path d="M222 121H168C161.373 121 156 126.373 156 133C156 139.627 161.373 145 168 145H222C228.627 145 234 139.627 234 133C234 126.373 228.627 121 222 121Z" fill="#252525" fill-opacity="0.7"/>
<path d="M221.772 163H148C141.373 163 136 168.373 136 175C136 181.627 141.373 187 148 187H221.772C228.4 187 233.772 181.627 233.772 175C233.772 168.373 228.4 163 221.772 163Z" fill="#252525"/>
<path d="M222 79H90C83.3726 79 78 84.3726 78 91C78 97.6274 83.3726 103 90 103H222C228.627 103 234 97.6274 234 91C234 84.3726 228.627 79 222 79Z" fill="#252525"/>
<path d="M222 205H90C83.3726 205 78 210.373 78 217C78 223.627 83.3726 229 90 229H222C228.627 229 234 223.627 234 217C234 210.373 228.627 205 222 205Z" fill="#252525" fill-opacity="0.7"/>
<path d="M125.612 165.68C125.612 168.613 124.839 171.333 123.292 173.84C121.799 176.293 119.559 178.32 116.572 179.92C113.639 181.467 110.145 182.32 106.092 182.48V188.96H100.972V182.4C95.3185 181.92 90.7585 180.24 87.2919 177.36C83.8252 174.427 81.9852 170.453 81.7719 165.44H96.3319C96.6519 168.64 98.1985 170.693 100.972 171.6V158.96C96.8119 157.893 93.4785 156.853 90.9719 155.84C88.5185 154.827 86.3585 153.2 84.4919 150.96C82.6252 148.72 81.6919 145.653 81.6919 141.76C81.6919 136.907 83.4785 133.013 87.0519 130.08C90.6785 127.147 95.3185 125.493 100.972 125.12V118.64H106.092V125.12C111.692 125.547 116.119 127.173 119.372 130C122.625 132.827 124.439 136.747 124.812 141.76H110.172C109.852 138.88 108.492 137.013 106.092 136.16V148.56C110.519 149.787 113.932 150.88 116.332 151.84C118.732 152.8 120.865 154.4 122.732 156.64C124.652 158.827 125.612 161.84 125.612 165.68ZM96.1719 141.12C96.1719 142.453 96.5719 143.573 97.3719 144.48C98.2252 145.387 99.4252 146.187 100.972 146.88V135.76C99.4785 136.027 98.3052 136.613 97.4519 137.52C96.5985 138.373 96.1719 139.573 96.1719 141.12ZM106.092 171.84C107.692 171.573 108.945 170.933 109.852 169.92C110.812 168.907 111.292 167.653 111.292 166.16C111.292 164.773 110.839 163.653 109.932 162.8C109.079 161.893 107.799 161.12 106.092 160.48V171.84Z" fill="#252525"/>
</svg>
