<svg width="300" height="300" viewBox="0 0 300 300" fill="none" xmlns="http://www.w3.org/2000/svg">
<g clip-path="url(#clip0_1411_1904)">
<mask id="path-1-inside-1_1411_1904" fill="white">
<rect y="25" width="119" height="160" rx="11"/>
</mask>
<rect y="25" width="119" height="160" rx="11" stroke="#252525" stroke-width="30" mask="url(#path-1-inside-1_1411_1904)"/>
<path d="M210.762 111.203C213.045 104.993 211.787 98.3476 208.016 93.4775L212.931 95.2665C214.747 95.9277 215.684 97.9361 215.023 99.7525L167.824 229.43C167.163 231.247 165.155 232.183 163.338 231.522L156.959 229.2C163.506 228.287 169.345 223.886 171.782 217.254L210.762 111.203Z" stroke="#252525" stroke-opacity="0.7" stroke-width="15"/>
<path d="M279.459 197.651C283.728 192.596 284.819 185.922 282.941 180.055L286.948 183.418C288.429 184.66 288.622 186.868 287.379 188.348L198.675 294.063C197.432 295.543 195.224 295.737 193.744 294.494L188.544 290.131C195.008 291.512 202 289.373 206.559 283.975L279.459 197.651Z" stroke="#252525" stroke-width="15"/>
<rect width="24.7407" height="24.7407" rx="4" transform="matrix(-0.000100092 1 -0.865975 0.500087 81.1387 90.184)" fill="#252525" fill-opacity="0.7"/>
<rect width="25.1772" height="25.1772" rx="4" transform="matrix(0.870919 0.491427 -0.870919 0.491427 58.9275 76)" fill="#252525" fill-opacity="0.7"/>
<rect width="24.7407" height="24.7407" rx="4" transform="matrix(-0.000100118 -1 0.865975 0.500087 36.7136 114.925)" fill="#252525" fill-opacity="0.7"/>
</g>
<defs>
<clipPath id="clip0_1411_1904">
<rect width="300" height="300" fill="white"/>
</clipPath>
</defs>
</svg>
