<svg width="50" height="50" viewBox="0 0 50 50" fill="none" xmlns="http://www.w3.org/2000/svg">
<g clip-path="url(#clip0_1501_1982)">
<path d="M25.4775 3.97249L29.1417 15.7783C29.8559 18.0795 31.985 19.6479 34.3945 19.6479H46.534C46.7004 19.6479 46.7836 19.6936 46.8341 19.7322C46.8993 19.782 46.9674 19.8683 47.0078 19.9882C47.0483 20.1082 47.0463 20.2181 47.0246 20.2972C47.0077 20.3585 46.9692 20.4452 46.8367 20.5459L36.7827 28.1929C34.9428 29.5924 34.1743 31.9931 34.8596 34.2009L38.6435 46.3925C38.6943 46.5561 38.6737 46.6494 38.6517 46.7078C38.6228 46.7845 38.5588 46.876 38.4527 46.9503C38.3465 47.0246 38.2387 47.0535 38.1567 47.0543C38.0943 47.055 37.9996 47.0424 37.8632 46.9387L28.3296 39.6874C26.3621 38.1909 23.6379 38.1909 21.6704 39.6874L12.1367 46.9387C12.0004 47.0424 11.9057 47.055 11.8433 47.0543C11.7613 47.0535 11.6535 47.0246 11.5473 46.9503C11.4412 46.876 11.3772 46.7845 11.3483 46.7078C11.3263 46.6494 11.3057 46.5561 11.3565 46.3925L15.1405 34.2009C15.8257 31.9931 15.0572 29.5924 13.2173 28.1929L3.16327 20.5459C3.03084 20.4452 2.99231 20.3585 2.97544 20.2972C2.95368 20.2181 2.95172 20.1082 2.99216 19.9882C3.03259 19.8683 3.10069 19.782 3.16589 19.7322C3.21645 19.6936 3.29958 19.6479 3.46597 19.6479H15.6055C18.0151 19.6479 20.1441 18.0795 20.8583 15.7783L24.5225 3.97249C24.5741 3.80605 24.6448 3.74119 24.6955 3.70619C24.763 3.65966 24.8687 3.6207 25 3.6207C25.1313 3.6207 25.237 3.65966 25.3045 3.70619C25.3552 3.7412 25.4259 3.80606 25.4775 3.97249Z" stroke="#6E6E73" stroke-width="5"/>
</g>
<defs>
<clipPath id="clip0_1501_1982">
<rect width="50" height="50" fill="white" transform="translate(50 50) rotate(-180)"/>
</clipPath>
</defs>
</svg>
