<svg width="1098" height="280" viewBox="0 0 1098 280" fill="none" xmlns="http://www.w3.org/2000/svg">
<path d="M350.6 74C348.067 69.3333 344.4 65.8 339.6 63.4C334.933 60.8667 329.4 59.6 323 59.6C311.933 59.6 303.067 63.2667 296.4 70.6C289.733 77.8 286.4 87.4667 286.4 99.6C286.4 112.533 289.867 122.667 296.8 130C303.867 137.2 313.533 140.8 325.8 140.8C334.2 140.8 341.267 138.667 347 134.4C352.867 130.133 357.133 124 359.8 116H316.4V90.8H390.8V122.6C388.267 131.133 383.933 139.067 377.8 146.4C371.8 153.733 364.133 159.667 354.8 164.2C345.467 168.733 334.933 171 323.2 171C309.333 171 296.933 168 286 162C275.2 155.867 266.733 147.4 260.6 136.6C254.6 125.8 251.6 113.467 251.6 99.6C251.6 85.7333 254.6 73.4 260.6 62.6C266.733 51.6667 275.2 43.2 286 37.2C296.8 31.0667 309.133 28 323 28C339.8 28 353.933 32.0667 365.4 40.2C377 48.3333 384.667 59.6 388.4 74H350.6ZM443.944 77C447.944 70.8667 452.944 66.0667 458.944 62.6C464.944 59 471.61 57.2 478.944 57.2V93.4H469.544C461.01 93.4 454.61 95.2667 450.344 99C446.077 102.6 443.944 109 443.944 118.2V170H409.744V58.4H443.944V77ZM512.491 46.8C506.491 46.8 501.557 45.0667 497.691 41.6C493.957 38 492.091 33.6 492.091 28.4C492.091 23.0667 493.957 18.6667 497.691 15.2C501.557 11.6 506.491 9.79999 512.491 9.79999C518.357 9.79999 523.157 11.6 526.891 15.2C530.757 18.6667 532.691 23.0667 532.691 28.4C532.691 33.6 530.757 38 526.891 41.6C523.157 45.0667 518.357 46.8 512.491 46.8ZM529.491 58.4V170H495.291V58.4H529.491ZM610.275 86.8H591.875V170H557.675V86.8H545.275V58.4H557.675V55.2C557.675 41.4667 561.608 31.0667 569.475 24C577.342 16.8 588.875 13.2 604.075 13.2C606.608 13.2 608.475 13.2667 609.675 13.4V42.4C603.142 42 598.542 42.9333 595.875 45.2C593.208 47.4667 591.875 51.5333 591.875 57.4V58.4H610.275V86.8ZM731.545 112.4C731.545 115.6 731.345 118.933 730.945 122.4H653.545C654.079 129.333 656.279 134.667 660.145 138.4C664.145 142 669.012 143.8 674.745 143.8C683.279 143.8 689.212 140.2 692.545 133H728.945C727.079 140.333 723.679 146.933 718.745 152.8C713.945 158.667 707.879 163.267 700.545 166.6C693.212 169.933 685.012 171.6 675.945 171.6C665.012 171.6 655.279 169.267 646.745 164.6C638.212 159.933 631.545 153.267 626.745 144.6C621.945 135.933 619.545 125.8 619.545 114.2C619.545 102.6 621.879 92.4667 626.545 83.8C631.345 75.1333 638.012 68.4667 646.545 63.8C655.079 59.1333 664.879 56.8 675.945 56.8C686.745 56.8 696.345 59.0667 704.745 63.6C713.145 68.1333 719.679 74.6 724.345 83C729.145 91.4 731.545 101.2 731.545 112.4ZM696.545 103.4C696.545 97.5333 694.545 92.8667 690.545 89.4C686.545 85.9333 681.545 84.2 675.545 84.2C669.812 84.2 664.945 85.8667 660.945 89.2C657.079 92.5333 654.679 97.2667 653.745 103.4H696.545ZM817.588 57.2C830.654 57.2 841.054 61.4667 848.788 70C856.654 78.4 860.588 90 860.588 104.8V170H826.588V109.4C826.588 101.933 824.654 96.1333 820.788 92C816.921 87.8667 811.721 85.8 805.188 85.8C798.654 85.8 793.454 87.8667 789.588 92C785.721 96.1333 783.788 101.933 783.788 109.4V170H749.588V58.4H783.788V73.2C787.254 68.2667 791.921 64.4 797.788 61.6C803.654 58.6667 810.254 57.2 817.588 57.2ZM901.553 46.8C895.553 46.8 890.62 45.0667 886.753 41.6C883.02 38 881.153 33.6 881.153 28.4C881.153 23.0667 883.02 18.6667 886.753 15.2C890.62 11.6 895.553 9.79999 901.553 9.79999C907.42 9.79999 912.22 11.6 915.953 15.2C919.82 18.6667 921.753 23.0667 921.753 28.4C921.753 33.6 919.82 38 915.953 41.6C912.22 45.0667 907.42 46.8 901.553 46.8ZM918.553 58.4V170H884.353V58.4H918.553ZM1009.34 170L987.938 139L969.938 170H932.938L969.738 113L931.938 58.4H970.338L991.738 89.2L1009.74 58.4H1046.74L1009.34 114.6L1047.74 170H1009.34Z" fill="#0071DA"/>
<path d="M321.24 202.24L305.08 258H296.92L283.96 213.12L270.52 258L262.44 258.08L246.84 202.24H254.6L266.76 249.52L280.2 202.24H288.36L301.16 249.36L313.4 202.24H321.24ZM350.967 213.36C354.274 213.36 357.26 214.08 359.927 215.52C362.594 216.907 364.674 219.013 366.167 221.84C367.714 224.667 368.487 228.107 368.487 232.16V258H361.287V233.2C361.287 228.827 360.194 225.493 358.007 223.2C355.82 220.853 352.834 219.68 349.047 219.68C345.207 219.68 342.14 220.88 339.847 223.28C337.607 225.68 336.487 229.173 336.487 233.76V258H329.207V198.8H336.487V220.4C337.927 218.16 339.9 216.427 342.407 215.2C344.967 213.973 347.82 213.36 350.967 213.36ZM384.139 207.04C382.752 207.04 381.579 206.56 380.619 205.6C379.659 204.64 379.179 203.467 379.179 202.08C379.179 200.693 379.659 199.52 380.619 198.56C381.579 197.6 382.752 197.12 384.139 197.12C385.472 197.12 386.592 197.6 387.499 198.56C388.459 199.52 388.939 200.693 388.939 202.08C388.939 203.467 388.459 204.64 387.499 205.6C386.592 206.56 385.472 207.04 384.139 207.04ZM387.659 214.16V258H380.379V214.16H387.659ZM408.946 220.16V246C408.946 248.133 409.4 249.653 410.306 250.56C411.213 251.413 412.786 251.84 415.026 251.84H420.386V258H413.826C409.773 258 406.733 257.067 404.706 255.2C402.68 253.333 401.666 250.267 401.666 246V220.16H395.986V214.16H401.666V203.12H408.946V214.16H420.386V220.16H408.946ZM469.207 234.4C469.207 235.787 469.127 237.253 468.967 238.8H433.927C434.194 243.12 435.66 246.507 438.327 248.96C441.047 251.36 444.327 252.56 448.167 252.56C451.314 252.56 453.927 251.84 456.007 250.4C458.14 248.907 459.634 246.933 460.487 244.48H468.327C467.154 248.693 464.807 252.133 461.287 254.8C457.767 257.413 453.394 258.72 448.167 258.72C444.007 258.72 440.274 257.787 436.967 255.92C433.714 254.053 431.154 251.413 429.287 248C427.42 244.533 426.487 240.533 426.487 236C426.487 231.467 427.394 227.493 429.207 224.08C431.02 220.667 433.554 218.053 436.807 216.24C440.114 214.373 443.9 213.44 448.167 213.44C452.327 213.44 456.007 214.347 459.207 216.16C462.407 217.973 464.86 220.48 466.567 223.68C468.327 226.827 469.207 230.4 469.207 234.4ZM461.687 232.88C461.687 230.107 461.074 227.733 459.847 225.76C458.62 223.733 456.94 222.213 454.807 221.2C452.727 220.133 450.407 219.6 447.847 219.6C444.167 219.6 441.02 220.773 438.407 223.12C435.847 225.467 434.38 228.72 434.007 232.88H461.687ZM486.096 198.8V258H478.816V198.8H486.096ZM502.264 207.04C500.877 207.04 499.704 206.56 498.744 205.6C497.784 204.64 497.304 203.467 497.304 202.08C497.304 200.693 497.784 199.52 498.744 198.56C499.704 197.6 500.877 197.12 502.264 197.12C503.597 197.12 504.717 197.6 505.624 198.56C506.584 199.52 507.064 200.693 507.064 202.08C507.064 203.467 506.584 204.64 505.624 205.6C504.717 206.56 503.597 207.04 502.264 207.04ZM505.784 214.16V258H498.504V214.16H505.784ZM533.711 258.72C530.351 258.72 527.338 258.16 524.671 257.04C522.005 255.867 519.898 254.267 518.351 252.24C516.805 250.16 515.951 247.787 515.791 245.12H523.311C523.525 247.307 524.538 249.093 526.351 250.48C528.218 251.867 530.645 252.56 533.631 252.56C536.405 252.56 538.591 251.947 540.191 250.72C541.791 249.493 542.591 247.947 542.591 246.08C542.591 244.16 541.738 242.747 540.031 241.84C538.325 240.88 535.685 239.947 532.111 239.04C528.858 238.187 526.191 237.333 524.111 236.48C522.085 235.573 520.325 234.267 518.831 232.56C517.391 230.8 516.671 228.507 516.671 225.68C516.671 223.44 517.338 221.387 518.671 219.52C520.005 217.653 521.898 216.187 524.351 215.12C526.805 214 529.605 213.44 532.751 213.44C537.605 213.44 541.525 214.667 544.511 217.12C547.498 219.573 549.098 222.933 549.311 227.2H542.031C541.871 224.907 540.938 223.067 539.231 221.68C537.578 220.293 535.338 219.6 532.511 219.6C529.898 219.6 527.818 220.16 526.271 221.28C524.725 222.4 523.951 223.867 523.951 225.68C523.951 227.12 524.405 228.32 525.311 229.28C526.271 230.187 527.445 230.933 528.831 231.52C530.271 232.053 532.245 232.667 534.751 233.36C537.898 234.213 540.458 235.067 542.431 235.92C544.405 236.72 546.085 237.947 547.471 239.6C548.911 241.253 549.658 243.413 549.711 246.08C549.711 248.48 549.045 250.64 547.711 252.56C546.378 254.48 544.485 256 542.031 257.12C539.631 258.187 536.858 258.72 533.711 258.72ZM568.868 220.16V246C568.868 248.133 569.321 249.653 570.228 250.56C571.135 251.413 572.708 251.84 574.948 251.84H580.308V258H573.748C569.695 258 566.655 257.067 564.628 255.2C562.601 253.333 561.588 250.267 561.588 246V220.16H555.908V214.16H561.588V203.12H568.868V214.16H580.308V220.16H568.868ZM629.129 234.4C629.129 235.787 629.049 237.253 628.889 238.8H593.849C594.115 243.12 595.582 246.507 598.249 248.96C600.969 251.36 604.249 252.56 608.089 252.56C611.235 252.56 613.849 251.84 615.929 250.4C618.062 248.907 619.555 246.933 620.409 244.48H628.249C627.075 248.693 624.729 252.133 621.209 254.8C617.689 257.413 613.315 258.72 608.089 258.72C603.929 258.72 600.195 257.787 596.889 255.92C593.635 254.053 591.075 251.413 589.209 248C587.342 244.533 586.409 240.533 586.409 236C586.409 231.467 587.315 227.493 589.129 224.08C590.942 220.667 593.475 218.053 596.729 216.24C600.035 214.373 603.822 213.44 608.089 213.44C612.249 213.44 615.929 214.347 619.129 216.16C622.329 217.973 624.782 220.48 626.489 223.68C628.249 226.827 629.129 230.4 629.129 234.4ZM621.609 232.88C621.609 230.107 620.995 227.733 619.769 225.76C618.542 223.733 616.862 222.213 614.729 221.2C612.649 220.133 610.329 219.6 607.769 219.6C604.089 219.6 600.942 220.773 598.329 223.12C595.769 225.467 594.302 228.72 593.929 232.88H621.609ZM636.018 235.92C636.018 231.44 636.925 227.52 638.738 224.16C640.551 220.747 643.031 218.107 646.178 216.24C649.378 214.373 652.951 213.44 656.898 213.44C660.311 213.44 663.485 214.24 666.418 215.84C669.351 217.387 671.591 219.44 673.138 222V198.8H680.498V258H673.138V249.76C671.698 252.373 669.565 254.533 666.738 256.24C663.911 257.893 660.605 258.72 656.818 258.72C652.925 258.72 649.378 257.76 646.178 255.84C643.031 253.92 640.551 251.227 638.738 247.76C636.925 244.293 636.018 240.347 636.018 235.92ZM673.138 236C673.138 232.693 672.471 229.813 671.138 227.36C669.805 224.907 667.991 223.04 665.698 221.76C663.458 220.427 660.978 219.76 658.258 219.76C655.538 219.76 653.058 220.4 650.818 221.68C648.578 222.96 646.791 224.827 645.458 227.28C644.125 229.733 643.458 232.613 643.458 235.92C643.458 239.28 644.125 242.213 645.458 244.72C646.791 247.173 648.578 249.067 650.818 250.4C653.058 251.68 655.538 252.32 658.258 252.32C660.978 252.32 663.458 251.68 665.698 250.4C667.991 249.067 669.805 247.173 671.138 244.72C672.471 242.213 673.138 239.307 673.138 236Z" fill="#0071DA"/>
<rect width="98.9584" height="98.9584" rx="4" transform="matrix(9.44802e-06 1 -0.86603 0.499992 219.552 54.74)" fill="url(#paint0_linear_1657_32)"/>
<rect width="100.705" height="100.705" rx="4" transform="matrix(0.870859 0.491534 -0.870859 0.491534 130.7 0)" fill="url(#paint1_linear_1657_32)"/>
<rect width="98.9584" height="98.9584" rx="4" transform="matrix(9.44802e-06 -1 0.86603 0.499992 42.8506 153.698)" fill="url(#paint2_linear_1657_32)"/>
<defs>
<linearGradient id="paint0_linear_1657_32" x1="49.4792" y1="0" x2="49.4792" y2="98.9584" gradientUnits="userSpaceOnUse">
<stop offset="1" stop-color="#003C74"/>
</linearGradient>
<linearGradient id="paint1_linear_1657_32" x1="50.3526" y1="0" x2="50.3526" y2="100.705" gradientUnits="userSpaceOnUse">
<stop stop-color="#0071DA"/>
</linearGradient>
<linearGradient id="paint2_linear_1657_32" x1="98.9584" y1="0" x2="7.6294e-06" y2="98.9584" gradientUnits="userSpaceOnUse">
<stop offset="0.227486" stop-color="#0071DA"/>
<stop offset="1" stop-color="#003C74"/>
</linearGradient>
</defs>
</svg>
