<svg width="1098" height="280" viewBox="0 0 1098 280" fill="none" xmlns="http://www.w3.org/2000/svg">
<path d="M350.6 74C348.067 69.3333 344.4 65.8 339.6 63.4C334.933 60.8667 329.4 59.6 323 59.6C311.933 59.6 303.067 63.2667 296.4 70.6C289.733 77.8 286.4 87.4667 286.4 99.6C286.4 112.533 289.867 122.667 296.8 130C303.867 137.2 313.533 140.8 325.8 140.8C334.2 140.8 341.267 138.667 347 134.4C352.867 130.133 357.133 124 359.8 116H316.4V90.8H390.8V122.6C388.267 131.133 383.933 139.067 377.8 146.4C371.8 153.733 364.133 159.667 354.8 164.2C345.467 168.733 334.933 171 323.2 171C309.333 171 296.933 168 286 162C275.2 155.867 266.733 147.4 260.6 136.6C254.6 125.8 251.6 113.467 251.6 99.6C251.6 85.7333 254.6 73.4 260.6 62.6C266.733 51.6667 275.2 43.2 286 37.2C296.8 31.0667 309.133 28 323 28C339.8 28 353.933 32.0667 365.4 40.2C377 48.3333 384.667 59.6 388.4 74H350.6ZM443.944 77C447.944 70.8667 452.944 66.0667 458.944 62.6C464.944 59 471.61 57.2 478.944 57.2V93.4H469.544C461.01 93.4 454.61 95.2667 450.344 99C446.077 102.6 443.944 109 443.944 118.2V170H409.744V58.4H443.944V77ZM512.491 46.8C506.491 46.8 501.557 45.0667 497.691 41.6C493.957 38 492.091 33.6 492.091 28.4C492.091 23.0667 493.957 18.6667 497.691 15.2C501.557 11.6 506.491 9.79999 512.491 9.79999C518.357 9.79999 523.157 11.6 526.891 15.2C530.757 18.6667 532.691 23.0667 532.691 28.4C532.691 33.6 530.757 38 526.891 41.6C523.157 45.0667 518.357 46.8 512.491 46.8ZM529.491 58.4V170H495.291V58.4H529.491ZM610.275 86.8H591.875V170H557.675V86.8H545.275V58.4H557.675V55.2C557.675 41.4667 561.608 31.0667 569.475 24C577.342 16.8 588.875 13.2 604.075 13.2C606.608 13.2 608.475 13.2667 609.675 13.4V42.4C603.142 42 598.542 42.9333 595.875 45.2C593.208 47.4667 591.875 51.5333 591.875 57.4V58.4H610.275V86.8ZM731.545 112.4C731.545 115.6 731.345 118.933 730.945 122.4H653.545C654.079 129.333 656.279 134.667 660.145 138.4C664.145 142 669.012 143.8 674.745 143.8C683.279 143.8 689.212 140.2 692.545 133H728.945C727.079 140.333 723.679 146.933 718.745 152.8C713.945 158.667 707.879 163.267 700.545 166.6C693.212 169.933 685.012 171.6 675.945 171.6C665.012 171.6 655.279 169.267 646.745 164.6C638.212 159.933 631.545 153.267 626.745 144.6C621.945 135.933 619.545 125.8 619.545 114.2C619.545 102.6 621.879 92.4667 626.545 83.8C631.345 75.1333 638.012 68.4667 646.545 63.8C655.079 59.1333 664.879 56.8 675.945 56.8C686.745 56.8 696.345 59.0667 704.745 63.6C713.145 68.1333 719.679 74.6 724.345 83C729.145 91.4 731.545 101.2 731.545 112.4ZM696.545 103.4C696.545 97.5333 694.545 92.8667 690.545 89.4C686.545 85.9333 681.545 84.2 675.545 84.2C669.812 84.2 664.945 85.8667 660.945 89.2C657.079 92.5333 654.679 97.2667 653.745 103.4H696.545ZM817.588 57.2C830.654 57.2 841.054 61.4667 848.788 70C856.654 78.4 860.588 90 860.588 104.8V170H826.588V109.4C826.588 101.933 824.654 96.1333 820.788 92C816.921 87.8667 811.721 85.8 805.188 85.8C798.654 85.8 793.454 87.8667 789.588 92C785.721 96.1333 783.788 101.933 783.788 109.4V170H749.588V58.4H783.788V73.2C787.254 68.2667 791.921 64.4 797.788 61.6C803.654 58.6667 810.254 57.2 817.588 57.2ZM901.553 46.8C895.553 46.8 890.62 45.0667 886.753 41.6C883.02 38 881.153 33.6 881.153 28.4C881.153 23.0667 883.02 18.6667 886.753 15.2C890.62 11.6 895.553 9.79999 901.553 9.79999C907.42 9.79999 912.22 11.6 915.953 15.2C919.82 18.6667 921.753 23.0667 921.753 28.4C921.753 33.6 919.82 38 915.953 41.6C912.22 45.0667 907.42 46.8 901.553 46.8ZM918.553 58.4V170H884.353V58.4H918.553ZM1009.34 170L987.938 139L969.938 170H932.938L969.738 113L931.938 58.4H970.338L991.738 89.2L1009.74 58.4H1046.74L1009.34 114.6L1047.74 170H1009.34Z" fill="#0071DA"/>
<path d="M268.84 258.56C265.16 258.56 261.853 257.92 258.92 256.64C256.04 255.307 253.773 253.493 252.12 251.2C250.467 248.853 249.613 246.16 249.56 243.12H257.32C257.587 245.733 258.653 247.947 260.52 249.76C262.44 251.52 265.213 252.4 268.84 252.4C272.307 252.4 275.027 251.547 277 249.84C279.027 248.08 280.04 245.84 280.04 243.12C280.04 240.987 279.453 239.253 278.28 237.92C277.107 236.587 275.64 235.573 273.88 234.88C272.12 234.187 269.747 233.44 266.76 232.64C263.08 231.68 260.12 230.72 257.88 229.76C255.693 228.8 253.8 227.307 252.2 225.28C250.653 223.2 249.88 220.427 249.88 216.96C249.88 213.92 250.653 211.227 252.2 208.88C253.747 206.533 255.907 204.72 258.68 203.44C261.507 202.16 264.733 201.52 268.36 201.52C273.587 201.52 277.853 202.827 281.16 205.44C284.52 208.053 286.413 211.52 286.84 215.84H278.84C278.573 213.707 277.453 211.84 275.48 210.24C273.507 208.587 270.893 207.76 267.64 207.76C264.6 207.76 262.12 208.56 260.2 210.16C258.28 211.707 257.32 213.893 257.32 216.72C257.32 218.747 257.88 220.4 259 221.68C260.173 222.96 261.587 223.947 263.24 224.64C264.947 225.28 267.32 226.027 270.36 226.88C274.04 227.893 277 228.907 279.24 229.92C281.48 230.88 283.4 232.4 285 234.48C286.6 236.507 287.4 239.28 287.4 242.8C287.4 245.52 286.68 248.08 285.24 250.48C283.8 252.88 281.667 254.827 278.84 256.32C276.013 257.813 272.68 258.56 268.84 258.56ZM301.873 207.04C300.486 207.04 299.313 206.56 298.353 205.6C297.393 204.64 296.913 203.467 296.913 202.08C296.913 200.693 297.393 199.52 298.353 198.56C299.313 197.6 300.486 197.12 301.873 197.12C303.206 197.12 304.326 197.6 305.233 198.56C306.193 199.52 306.673 200.693 306.673 202.08C306.673 203.467 306.193 204.64 305.233 205.6C304.326 206.56 303.206 207.04 301.873 207.04ZM305.393 214.16V258H298.113V214.16H305.393ZM335.881 213.44C339.667 213.44 342.974 214.267 345.801 215.92C348.681 217.573 350.814 219.653 352.201 222.16V214.16H359.561V258.96C359.561 262.96 358.707 266.507 357.001 269.6C355.294 272.747 352.841 275.2 349.641 276.96C346.494 278.72 342.814 279.6 338.601 279.6C332.841 279.6 328.041 278.24 324.201 275.52C320.361 272.8 318.094 269.093 317.401 264.4H324.601C325.401 267.067 327.054 269.2 329.561 270.8C332.067 272.453 335.081 273.28 338.601 273.28C342.601 273.28 345.854 272.027 348.361 269.52C350.921 267.013 352.201 263.493 352.201 258.96V249.76C350.761 252.32 348.627 254.453 345.801 256.16C342.974 257.867 339.667 258.72 335.881 258.72C331.987 258.72 328.441 257.76 325.241 255.84C322.094 253.92 319.614 251.227 317.801 247.76C315.987 244.293 315.081 240.347 315.081 235.92C315.081 231.44 315.987 227.52 317.801 224.16C319.614 220.747 322.094 218.107 325.241 216.24C328.441 214.373 331.987 213.44 335.881 213.44ZM352.201 236C352.201 232.693 351.534 229.813 350.201 227.36C348.867 224.907 347.054 223.04 344.761 221.76C342.521 220.427 340.041 219.76 337.321 219.76C334.601 219.76 332.121 220.4 329.881 221.68C327.641 222.96 325.854 224.827 324.521 227.28C323.187 229.733 322.521 232.613 322.521 235.92C322.521 239.28 323.187 242.213 324.521 244.72C325.854 247.173 327.641 249.067 329.881 250.4C332.121 251.68 334.601 252.32 337.321 252.32C340.041 252.32 342.521 251.68 344.761 250.4C347.054 249.067 348.867 247.173 350.201 244.72C351.534 242.213 352.201 239.307 352.201 236ZM393.223 213.36C398.556 213.36 402.876 214.987 406.183 218.24C409.49 221.44 411.143 226.08 411.143 232.16V258H403.943V233.2C403.943 228.827 402.85 225.493 400.663 223.2C398.476 220.853 395.49 219.68 391.703 219.68C387.863 219.68 384.796 220.88 382.503 223.28C380.263 225.68 379.143 229.173 379.143 233.76V258H371.863V214.16H379.143V220.4C380.583 218.16 382.53 216.427 384.983 215.2C387.49 213.973 390.236 213.36 393.223 213.36ZM451.483 202.24V237.52C451.483 242.48 452.683 246.16 455.083 248.56C457.536 250.96 460.923 252.16 465.243 252.16C469.51 252.16 472.843 250.96 475.243 248.56C477.696 246.16 478.923 242.48 478.923 237.52V202.24H486.203V237.44C486.203 242.08 485.27 246 483.403 249.2C481.536 252.347 479.003 254.693 475.803 256.24C472.656 257.787 469.11 258.56 465.163 258.56C461.216 258.56 457.643 257.787 454.443 256.24C451.296 254.693 448.79 252.347 446.923 249.2C445.11 246 444.203 242.08 444.203 237.44V202.24H451.483ZM505.628 222.24C507.068 219.733 509.201 217.653 512.028 216C514.908 214.293 518.241 213.44 522.028 213.44C525.921 213.44 529.441 214.373 532.587 216.24C535.787 218.107 538.294 220.747 540.108 224.16C541.921 227.52 542.828 231.44 542.828 235.92C542.828 240.347 541.921 244.293 540.108 247.76C538.294 251.227 535.787 253.92 532.587 255.84C529.441 257.76 525.921 258.72 522.028 258.72C518.294 258.72 514.988 257.893 512.108 256.24C509.281 254.533 507.121 252.427 505.628 249.92V278.8H498.348V214.16H505.628V222.24ZM535.388 235.92C535.388 232.613 534.721 229.733 533.388 227.28C532.054 224.827 530.241 222.96 527.948 221.68C525.708 220.4 523.228 219.76 520.508 219.76C517.841 219.76 515.361 220.427 513.068 221.76C510.828 223.04 509.014 224.933 507.628 227.44C506.294 229.893 505.628 232.747 505.628 236C505.628 239.307 506.294 242.213 507.628 244.72C509.014 247.173 510.828 249.067 513.068 250.4C515.361 251.68 517.841 252.32 520.508 252.32C523.228 252.32 525.708 251.68 527.948 250.4C530.241 249.067 532.054 247.173 533.388 244.72C534.721 242.213 535.388 239.28 535.388 235.92Z" fill="#0071DA"/>
<rect width="98.9584" height="98.9584" rx="4" transform="matrix(9.44802e-06 1 -0.86603 0.499992 219.551 54.74)" fill="url(#paint0_linear_1235_1748)"/>
<rect width="100.705" height="100.705" rx="4" transform="matrix(0.870859 0.491534 -0.870859 0.491534 130.7 0)" fill="url(#paint1_linear_1235_1748)"/>
<rect width="98.9584" height="98.9584" rx="4" transform="matrix(9.44802e-06 -1 0.86603 0.499992 42.8501 153.698)" fill="url(#paint2_linear_1235_1748)"/>
<defs>
<linearGradient id="paint0_linear_1235_1748" x1="49.4792" y1="0" x2="49.4792" y2="98.9584" gradientUnits="userSpaceOnUse">
<stop offset="1" stop-color="#003C74"/>
</linearGradient>
<linearGradient id="paint1_linear_1235_1748" x1="50.3526" y1="0" x2="50.3526" y2="100.705" gradientUnits="userSpaceOnUse">
<stop stop-color="#0071DA"/>
</linearGradient>
<linearGradient id="paint2_linear_1235_1748" x1="98.9584" y1="0" x2="7.6294e-06" y2="98.9584" gradientUnits="userSpaceOnUse">
<stop offset="0.227486" stop-color="#0071DA"/>
<stop offset="1" stop-color="#003C74"/>
</linearGradient>
</defs>
</svg>
