<svg width="1098" height="280" viewBox="0 0 1098 280" fill="none" xmlns="http://www.w3.org/2000/svg">
<path d="M350.6 74C348.067 69.3333 344.4 65.8 339.6 63.4C334.933 60.8667 329.4 59.6 323 59.6C311.933 59.6 303.067 63.2667 296.4 70.6C289.733 77.8 286.4 87.4667 286.4 99.6C286.4 112.533 289.867 122.667 296.8 130C303.867 137.2 313.533 140.8 325.8 140.8C334.2 140.8 341.267 138.667 347 134.4C352.867 130.133 357.133 124 359.8 116H316.4V90.8H390.8V122.6C388.267 131.133 383.933 139.067 377.8 146.4C371.8 153.733 364.133 159.667 354.8 164.2C345.467 168.733 334.933 171 323.2 171C309.333 171 296.933 168 286 162C275.2 155.867 266.733 147.4 260.6 136.6C254.6 125.8 251.6 113.467 251.6 99.6C251.6 85.7333 254.6 73.4 260.6 62.6C266.733 51.6667 275.2 43.2 286 37.2C296.8 31.0667 309.133 28 323 28C339.8 28 353.933 32.0667 365.4 40.2C377 48.3333 384.667 59.6 388.4 74H350.6ZM443.944 77C447.944 70.8667 452.944 66.0667 458.944 62.6C464.944 59 471.61 57.2 478.944 57.2V93.4H469.544C461.01 93.4 454.61 95.2667 450.344 99C446.077 102.6 443.944 109 443.944 118.2V170H409.744V58.4H443.944V77ZM512.491 46.8C506.491 46.8 501.557 45.0667 497.691 41.6C493.957 38 492.091 33.6 492.091 28.4C492.091 23.0667 493.957 18.6667 497.691 15.2C501.557 11.6 506.491 9.79999 512.491 9.79999C518.357 9.79999 523.157 11.6 526.891 15.2C530.757 18.6667 532.691 23.0667 532.691 28.4C532.691 33.6 530.757 38 526.891 41.6C523.157 45.0667 518.357 46.8 512.491 46.8ZM529.491 58.4V170H495.291V58.4H529.491ZM610.275 86.8H591.875V170H557.675V86.8H545.275V58.4H557.675V55.2C557.675 41.4667 561.608 31.0667 569.475 24C577.342 16.8 588.875 13.2 604.075 13.2C606.608 13.2 608.475 13.2667 609.675 13.4V42.4C603.142 42 598.542 42.9333 595.875 45.2C593.208 47.4667 591.875 51.5333 591.875 57.4V58.4H610.275V86.8ZM731.545 112.4C731.545 115.6 731.345 118.933 730.945 122.4H653.545C654.079 129.333 656.279 134.667 660.145 138.4C664.145 142 669.012 143.8 674.745 143.8C683.279 143.8 689.212 140.2 692.545 133H728.945C727.079 140.333 723.679 146.933 718.745 152.8C713.945 158.667 707.879 163.267 700.545 166.6C693.212 169.933 685.012 171.6 675.945 171.6C665.012 171.6 655.279 169.267 646.745 164.6C638.212 159.933 631.545 153.267 626.745 144.6C621.945 135.933 619.545 125.8 619.545 114.2C619.545 102.6 621.879 92.4667 626.545 83.8C631.345 75.1333 638.012 68.4667 646.545 63.8C655.079 59.1333 664.879 56.8 675.945 56.8C686.745 56.8 696.345 59.0667 704.745 63.6C713.145 68.1333 719.679 74.6 724.345 83C729.145 91.4 731.545 101.2 731.545 112.4ZM696.545 103.4C696.545 97.5333 694.545 92.8667 690.545 89.4C686.545 85.9333 681.545 84.2 675.545 84.2C669.812 84.2 664.945 85.8667 660.945 89.2C657.079 92.5333 654.679 97.2667 653.745 103.4H696.545ZM817.588 57.2C830.654 57.2 841.054 61.4667 848.788 70C856.654 78.4 860.588 90 860.588 104.8V170H826.588V109.4C826.588 101.933 824.654 96.1333 820.788 92C816.921 87.8667 811.721 85.8 805.188 85.8C798.654 85.8 793.454 87.8667 789.588 92C785.721 96.1333 783.788 101.933 783.788 109.4V170H749.588V58.4H783.788V73.2C787.254 68.2667 791.921 64.4 797.788 61.6C803.654 58.6667 810.254 57.2 817.588 57.2ZM901.553 46.8C895.553 46.8 890.62 45.0667 886.753 41.6C883.02 38 881.153 33.6 881.153 28.4C881.153 23.0667 883.02 18.6667 886.753 15.2C890.62 11.6 895.553 9.79999 901.553 9.79999C907.42 9.79999 912.22 11.6 915.953 15.2C919.82 18.6667 921.753 23.0667 921.753 28.4C921.753 33.6 919.82 38 915.953 41.6C912.22 45.0667 907.42 46.8 901.553 46.8ZM918.553 58.4V170H884.353V58.4H918.553ZM1009.34 170L987.938 139L969.938 170H932.938L969.738 113L931.938 58.4H970.338L991.738 89.2L1009.74 58.4H1046.74L1009.34 114.6L1047.74 170H1009.34Z" fill="#0071DA"/>
<path d="M258.44 252.08H277.96V258H251.16V202.24H258.44V252.08ZM304.811 258.72C300.705 258.72 296.971 257.787 293.611 255.92C290.305 254.053 287.691 251.413 285.771 248C283.905 244.533 282.971 240.533 282.971 236C282.971 231.52 283.931 227.573 285.851 224.16C287.825 220.693 290.491 218.053 293.851 216.24C297.211 214.373 300.971 213.44 305.131 213.44C309.291 213.44 313.051 214.373 316.411 216.24C319.771 218.053 322.411 220.667 324.331 224.08C326.305 227.493 327.291 231.467 327.291 236C327.291 240.533 326.278 244.533 324.251 248C322.278 251.413 319.585 254.053 316.171 255.92C312.758 257.787 308.971 258.72 304.811 258.72ZM304.811 252.32C307.425 252.32 309.878 251.707 312.171 250.48C314.465 249.253 316.305 247.413 317.691 244.96C319.131 242.507 319.851 239.52 319.851 236C319.851 232.48 319.158 229.493 317.771 227.04C316.385 224.587 314.571 222.773 312.331 221.6C310.091 220.373 307.665 219.76 305.051 219.76C302.385 219.76 299.931 220.373 297.691 221.6C295.505 222.773 293.745 224.587 292.411 227.04C291.078 229.493 290.411 232.48 290.411 236C290.411 239.573 291.051 242.587 292.331 245.04C293.665 247.493 295.425 249.333 297.611 250.56C299.798 251.733 302.198 252.32 304.811 252.32ZM354.943 213.44C358.73 213.44 362.036 214.267 364.863 215.92C367.743 217.573 369.876 219.653 371.263 222.16V214.16H378.623V258.96C378.623 262.96 377.77 266.507 376.063 269.6C374.356 272.747 371.903 275.2 368.703 276.96C365.556 278.72 361.876 279.6 357.663 279.6C351.903 279.6 347.103 278.24 343.263 275.52C339.423 272.8 337.156 269.093 336.463 264.4H343.663C344.463 267.067 346.116 269.2 348.623 270.8C351.13 272.453 354.143 273.28 357.663 273.28C361.663 273.28 364.916 272.027 367.423 269.52C369.983 267.013 371.263 263.493 371.263 258.96V249.76C369.823 252.32 367.69 254.453 364.863 256.16C362.036 257.867 358.73 258.72 354.943 258.72C351.05 258.72 347.503 257.76 344.303 255.84C341.156 253.92 338.676 251.227 336.863 247.76C335.05 244.293 334.143 240.347 334.143 235.92C334.143 231.44 335.05 227.52 336.863 224.16C338.676 220.747 341.156 218.107 344.303 216.24C347.503 214.373 351.05 213.44 354.943 213.44ZM371.263 236C371.263 232.693 370.596 229.813 369.263 227.36C367.93 224.907 366.116 223.04 363.823 221.76C361.583 220.427 359.103 219.76 356.383 219.76C353.663 219.76 351.183 220.4 348.943 221.68C346.703 222.96 344.916 224.827 343.583 227.28C342.25 229.733 341.583 232.613 341.583 235.92C341.583 239.28 342.25 242.213 343.583 244.72C344.916 247.173 346.703 249.067 348.943 250.4C351.183 251.68 353.663 252.32 356.383 252.32C359.103 252.32 361.583 251.68 363.823 250.4C366.116 249.067 367.93 247.173 369.263 244.72C370.596 242.213 371.263 239.307 371.263 236ZM419.534 202.24V258H412.254V202.24H419.534ZM453.301 213.36C458.635 213.36 462.955 214.987 466.261 218.24C469.568 221.44 471.221 226.08 471.221 232.16V258H464.021V233.2C464.021 228.827 462.928 225.493 460.741 223.2C458.555 220.853 455.568 219.68 451.781 219.68C447.941 219.68 444.875 220.88 442.581 223.28C440.341 225.68 439.221 229.173 439.221 233.76V258H431.941V214.16H439.221V220.4C440.661 218.16 442.608 216.427 445.061 215.2C447.568 213.973 450.315 213.36 453.301 213.36Z" fill="#0071DA"/>
<rect width="98.9584" height="98.9584" rx="4" transform="matrix(9.44802e-06 1 -0.86603 0.499992 219.551 54.74)" fill="url(#paint0_linear_1235_1768)"/>
<rect width="100.705" height="100.705" rx="4" transform="matrix(0.870859 0.491534 -0.870859 0.491534 130.7 0)" fill="url(#paint1_linear_1235_1768)"/>
<rect width="98.9584" height="98.9584" rx="4" transform="matrix(9.44802e-06 -1 0.86603 0.499992 42.8501 153.698)" fill="url(#paint2_linear_1235_1768)"/>
<defs>
<linearGradient id="paint0_linear_1235_1768" x1="49.4792" y1="0" x2="49.4792" y2="98.9584" gradientUnits="userSpaceOnUse">
<stop offset="1" stop-color="#003C74"/>
</linearGradient>
<linearGradient id="paint1_linear_1235_1768" x1="50.3526" y1="0" x2="50.3526" y2="100.705" gradientUnits="userSpaceOnUse">
<stop stop-color="#0071DA"/>
</linearGradient>
<linearGradient id="paint2_linear_1235_1768" x1="98.9584" y1="0" x2="7.6294e-06" y2="98.9584" gradientUnits="userSpaceOnUse">
<stop offset="0.227486" stop-color="#0071DA"/>
<stop offset="1" stop-color="#003C74"/>
</linearGradient>
</defs>
</svg>
