<svg width="50" height="50" viewBox="0 0 50 50" fill="none" xmlns="http://www.w3.org/2000/svg">
<path d="M40 44.0006V21H41V44C41 45.1046 40.1046 46 39 46H11C9.89543 46 9 45.1046 9 44V21H10V44.0006V45.0006H11H39H40V44.0006Z" stroke="#252525" stroke-width="2"/>
<rect x="3" y="25.0104" width="31.1181" height="3" rx="1" transform="rotate(-45 3 25.0104)" fill="#252525"/>
<path d="M24.3744 3.70711C24.7649 3.31658 25.3981 3.31658 25.7886 3.70711L46.3847 24.3032C46.7752 24.6937 46.7752 25.3269 46.3847 25.7174L45.6776 26.4245C45.2871 26.8151 44.6539 26.8151 44.2634 26.4245L23.6673 5.82843C23.2767 5.4379 23.2767 4.80474 23.6673 4.41421L24.0208 4.06066L24.3744 3.70711Z" fill="#252525"/>
<rect x="18.5" y="27.5" width="13" height="18" rx="1.5" stroke="#252525" stroke-width="3"/>
</svg>
