<svg width="322" height="95" viewBox="0 0 322 95" fill="none" xmlns="http://www.w3.org/2000/svg">
<rect width="322" height="95" fill="url(#paint0_linear_1395_1901)"/>
<path d="M114.4 38C113.767 36.8333 112.85 35.95 111.65 35.35C110.483 34.7167 109.1 34.4 107.5 34.4C104.733 34.4 102.517 35.3167 100.85 37.15C99.1833 38.95 98.35 41.3667 98.35 44.4C98.35 47.6333 99.2167 50.1667 100.95 52C102.717 53.8 105.133 54.7 108.2 54.7C110.3 54.7 112.067 54.1667 113.5 53.1C114.967 52.0333 116.033 50.5 116.7 48.5H105.85V42.2H124.45V50.15C123.817 52.2833 122.733 54.2667 121.2 56.1C119.7 57.9333 117.783 59.4167 115.45 60.55C113.117 61.6833 110.483 62.25 107.55 62.25C104.083 62.25 100.983 61.5 98.25 60C95.55 58.4667 93.4333 56.35 91.9 53.65C90.4 50.95 89.65 47.8667 89.65 44.4C89.65 40.9333 90.4 37.85 91.9 35.15C93.4333 32.4167 95.55 30.3 98.25 28.8C100.95 27.2667 104.033 26.5 107.5 26.5C111.7 26.5 115.233 27.5167 118.1 29.55C121 31.5833 122.917 34.4 123.85 38H114.4ZM137.736 38.75C138.736 37.2167 139.986 36.0167 141.486 35.15C142.986 34.25 144.653 33.8 146.486 33.8V42.85H144.136C142.003 42.85 140.403 43.3167 139.336 44.25C138.269 45.15 137.736 46.75 137.736 49.05V62H129.186V34.1H137.736V38.75ZM154.873 31.2C153.373 31.2 152.139 30.7667 151.173 29.9C150.239 29 149.773 27.9 149.773 26.6C149.773 25.2667 150.239 24.1667 151.173 23.3C152.139 22.4 153.373 21.95 154.873 21.95C156.339 21.95 157.539 22.4 158.473 23.3C159.439 24.1667 159.923 25.2667 159.923 26.6C159.923 27.9 159.439 29 158.473 29.9C157.539 30.7667 156.339 31.2 154.873 31.2ZM159.123 34.1V62H150.573V34.1H159.123ZM179.319 41.2H174.719V62H166.169V41.2H163.069V34.1H166.169V33.3C166.169 29.8667 167.152 27.2667 169.119 25.5C171.085 23.7 173.969 22.8 177.769 22.8C178.402 22.8 178.869 22.8167 179.169 22.85V30.1C177.535 30 176.385 30.2333 175.719 30.8C175.052 31.3667 174.719 32.3833 174.719 33.85V34.1H179.319V41.2ZM209.636 47.6C209.636 48.4 209.586 49.2333 209.486 50.1H190.136C190.27 51.8333 190.82 53.1667 191.786 54.1C192.786 55 194.003 55.45 195.436 55.45C197.57 55.45 199.053 54.55 199.886 52.75H208.986C208.52 54.5833 207.67 56.2333 206.436 57.7C205.236 59.1667 203.72 60.3167 201.886 61.15C200.053 61.9833 198.003 62.4 195.736 62.4C193.003 62.4 190.57 61.8167 188.436 60.65C186.303 59.4833 184.636 57.8167 183.436 55.65C182.236 53.4833 181.636 50.95 181.636 48.05C181.636 45.15 182.22 42.6167 183.386 40.45C184.586 38.2833 186.253 36.6167 188.386 35.45C190.52 34.2833 192.97 33.7 195.736 33.7C198.436 33.7 200.836 34.2667 202.936 35.4C205.036 36.5333 206.67 38.15 207.836 40.25C209.036 42.35 209.636 44.8 209.636 47.6ZM200.886 45.35C200.886 43.8833 200.386 42.7167 199.386 41.85C198.386 40.9833 197.136 40.55 195.636 40.55C194.203 40.55 192.986 40.9667 191.986 41.8C191.02 42.6333 190.42 43.8167 190.186 45.35H200.886ZM231.147 33.8C234.414 33.8 237.014 34.8667 238.947 37C240.914 39.1 241.897 42 241.897 45.7V62H233.397V46.85C233.397 44.9833 232.914 43.5333 231.947 42.5C230.98 41.4667 229.68 40.95 228.047 40.95C226.414 40.95 225.114 41.4667 224.147 42.5C223.18 43.5333 222.697 44.9833 222.697 46.85V62H214.147V34.1H222.697V37.8C223.564 36.5667 224.73 35.6 226.197 34.9C227.664 34.1667 229.314 33.8 231.147 33.8ZM252.138 31.2C250.638 31.2 249.405 30.7667 248.438 29.9C247.505 29 247.038 27.9 247.038 26.6C247.038 25.2667 247.505 24.1667 248.438 23.3C249.405 22.4 250.638 21.95 252.138 21.95C253.605 21.95 254.805 22.4 255.738 23.3C256.705 24.1667 257.188 25.2667 257.188 26.6C257.188 27.9 256.705 29 255.738 29.9C254.805 30.7667 253.605 31.2 252.138 31.2ZM256.388 34.1V62H247.838V34.1H256.388ZM279.084 62L273.734 54.25L269.234 62H259.984L269.184 47.75L259.734 34.1H269.334L274.684 41.8L279.184 34.1H288.434L279.084 48.15L288.684 62H279.084Z" fill="white"/>
<rect width="24.7407" height="24.7407" rx="4" transform="matrix(-0.000100092 1 -0.865975 0.500087 81.1387 33.1841)" fill="url(#paint1_linear_1395_1901)"/>
<rect width="25.1772" height="25.1772" rx="4" transform="matrix(0.870919 0.491427 -0.870919 0.491427 58.9275 19)" fill="url(#paint2_linear_1395_1901)"/>
<rect width="24.7407" height="24.7407" rx="4" transform="matrix(-0.000100118 -1 0.865975 0.500087 36.7136 57.9248)" fill="url(#paint3_linear_1395_1901)"/>
<defs>
<linearGradient id="paint0_linear_1395_1901" x1="-0.5" y1="2" x2="324" y2="97" gradientUnits="userSpaceOnUse">
<stop stop-color="#0071DA"/>
<stop offset="1" stop-color="#003C74"/>
</linearGradient>
<linearGradient id="paint1_linear_1395_1901" x1="12.3703" y1="0" x2="12.3703" y2="24.7407" gradientUnits="userSpaceOnUse">
<stop offset="1" stop-color="white"/>
</linearGradient>
<linearGradient id="paint2_linear_1395_1901" x1="12.5886" y1="0" x2="12.5886" y2="25.1772" gradientUnits="userSpaceOnUse">
<stop stop-color="white"/>
</linearGradient>
<linearGradient id="paint3_linear_1395_1901" x1="24.7407" y1="0" x2="1.90735e-06" y2="24.7407" gradientUnits="userSpaceOnUse">
<stop offset="0.227486" stop-color="white"/>
<stop offset="1" stop-color="white"/>
</linearGradient>
</defs>
</svg>
