<svg width="300" height="300" viewBox="0 0 300 300" fill="none" xmlns="http://www.w3.org/2000/svg">
<g clip-path="url(#clip0_1191_1715)">
<mask id="path-1-inside-1_1191_1715" fill="white">
<path d="M134 277.5C134 263.841 128.574 250.742 118.916 241.084C109.258 231.426 96.1587 226 82.5 226C68.8414 226 55.7421 231.426 46.084 241.084C36.4259 250.742 31 263.841 31 277.5L82.5 277.5H134Z"/>
</mask>
<path d="M134 277.5C134 263.841 128.574 250.742 118.916 241.084C109.258 231.426 96.1587 226 82.5 226C68.8414 226 55.7421 231.426 46.084 241.084C36.4259 250.742 31 263.841 31 277.5L82.5 277.5H134Z" stroke="#969899" stroke-width="20" mask="url(#path-1-inside-1_1191_1715)"/>
<circle cx="82" cy="186" r="30" stroke="#969899" stroke-width="10"/>
<mask id="path-3-inside-2_1191_1715" fill="white">
<path d="M269 277.5C269 263.841 263.574 250.742 253.916 241.084C244.258 231.426 231.159 226 217.5 226C203.841 226 190.742 231.426 181.084 241.084C171.426 250.742 166 263.841 166 277.5L217.5 277.5H269Z"/>
</mask>
<path d="M269 277.5C269 263.841 263.574 250.742 253.916 241.084C244.258 231.426 231.159 226 217.5 226C203.841 226 190.742 231.426 181.084 241.084C171.426 250.742 166 263.841 166 277.5L217.5 277.5H269Z" stroke="#969899" stroke-width="20" mask="url(#path-3-inside-2_1191_1715)"/>
<circle cx="217" cy="186" r="30" stroke="#969899" stroke-width="10"/>
<mask id="path-5-inside-3_1191_1715" fill="white">
<path d="M202 144.5C202 130.841 196.574 117.742 186.916 108.084C177.258 98.4259 164.159 93 150.5 93C136.841 93 123.742 98.4259 114.084 108.084C104.426 117.742 99 130.841 99 144.5L150.5 144.5H202Z"/>
</mask>
<path d="M202 144.5C202 130.841 196.574 117.742 186.916 108.084C177.258 98.4259 164.159 93 150.5 93C136.841 93 123.742 98.4259 114.084 108.084C104.426 117.742 99 130.841 99 144.5L150.5 144.5H202Z" stroke="#969899" stroke-width="20" mask="url(#path-5-inside-3_1191_1715)"/>
<circle cx="150" cy="53" r="30" stroke="#969899" stroke-width="10"/>
</g>
<defs>
<clipPath id="clip0_1191_1715">
<rect width="300" height="300" fill="white"/>
</clipPath>
</defs>
</svg>
