<svg width="300" height="300" viewBox="0 0 300 300" fill="none" xmlns="http://www.w3.org/2000/svg">
<path d="M276.8 98.4171L242.041 176.917C241.48 178.183 240.225 179 238.841 179H219.5H162.5H97.8037C96.3955 179 95.1245 178.156 94.578 176.858L89.4865 164.766L68.533 106.916C68.1386 105.827 68.3083 104.614 68.9864 103.675L75.287 94.9508C75.9451 94.0397 77.0006 93.5 78.1244 93.5H82.5H273.599C276.13 93.5 277.824 96.103 276.8 98.4171Z" stroke="#969899" stroke-width="15"/>
<path d="M82.7218 126.787L57.4314 57.3026C55.1594 51.0603 50.3364 47.0851 46.6588 48.4236C42.9812 49.7622 41.8417 55.9076 44.1137 62.1498L69.4041 131.635C71.6761 137.877 76.4991 141.852 80.1767 140.513C83.8543 139.175 84.9938 133.03 82.7218 126.787Z" fill="#969899"/>
<path d="M110.722 200.787L85.4314 131.303C83.1594 125.06 78.3364 121.085 74.6588 122.424C70.9812 123.762 69.8417 129.908 72.1137 136.15L97.4041 205.635C99.6761 211.877 104.499 215.852 108.177 214.513C111.854 213.175 112.994 207.03 110.722 200.787Z" fill="#969899"/>
<path d="M47.9383 48L15.3078 48C12.3764 48 10 51.1726 10 55.0862C10 58.9998 12.3764 62.1724 15.3078 62.1724L47.9383 62.1724C50.8697 62.1724 53.246 58.9998 53.246 55.0862C53.246 51.1726 50.8697 48 47.9383 48Z" fill="#969899"/>
<path d="M213.5 201L110.271 201C102.069 201 101 204.134 101 208C101 211.866 103 214.5 107.826 215L213.5 215C221.702 215 222 211.866 222 208C222 204.134 221.702 201 213.5 201Z" fill="#969899"/>
<circle cx="121" cy="239" r="15" fill="#969899" fill-opacity="0.7"/>
<circle cx="209" cy="239" r="15" fill="#969899" fill-opacity="0.7"/>
</svg>
