<svg width="300" height="300" viewBox="0 0 300 300" fill="none" xmlns="http://www.w3.org/2000/svg">
<path d="M216 166H84C77.3726 166 72 170.253 72 175.5C72 180.747 77.3726 185 84 185H216C222.627 185 228 180.747 228 175.5C228 170.253 222.627 166 216 166Z" fill="#969899"/>
<mask id="path-2-inside-1_1191_1686" fill="white">
<path d="M181.839 94.5153C193.304 92.965 204.997 94.9343 215.162 100.127C225.326 105.32 233.413 113.456 238.206 123.312C242.999 133.168 244.239 144.212 241.741 154.783C239.243 165.354 233.141 174.882 224.352 181.935L212.543 169.081C218.353 164.418 222.388 158.119 224.04 151.129C225.691 144.14 224.871 136.838 221.702 130.322C218.533 123.805 213.187 118.426 206.466 114.993C199.746 111.56 192.015 110.258 184.435 111.283L181.839 94.5153Z"/>
</mask>
<path d="M181.839 94.5153C193.304 92.965 204.997 94.9343 215.162 100.127C225.326 105.32 233.413 113.456 238.206 123.312C242.999 133.168 244.239 144.212 241.741 154.783C239.243 165.354 233.141 174.882 224.352 181.935L212.543 169.081C218.353 164.418 222.388 158.119 224.04 151.129C225.691 144.14 224.871 136.838 221.702 130.322C218.533 123.805 213.187 118.426 206.466 114.993C199.746 111.56 192.015 110.258 184.435 111.283L181.839 94.5153Z" fill="#C4C4C4" stroke="#969899" stroke-width="40" mask="url(#path-2-inside-1_1191_1686)"/>
<mask id="path-3-inside-2_1191_1686" fill="white">
<path d="M118.161 94.5153C106.696 92.965 95.0028 94.9343 84.8384 100.127C74.6739 105.32 66.5874 113.456 61.7944 123.312C57.0014 133.168 55.7607 144.212 58.2589 154.783C60.7571 165.354 66.8592 174.882 75.648 181.935L87.4573 169.081C81.6465 164.418 77.6121 158.119 75.9604 151.129C74.3086 144.14 75.1289 136.838 78.2979 130.322C81.4668 123.805 86.8133 118.426 93.5336 114.993C100.254 111.56 107.985 110.258 115.565 111.283L118.161 94.5153Z"/>
</mask>
<path d="M118.161 94.5153C106.696 92.965 95.0028 94.9343 84.8384 100.127C74.6739 105.32 66.5874 113.456 61.7944 123.312C57.0014 133.168 55.7607 144.212 58.2589 154.783C60.7571 165.354 66.8592 174.882 75.648 181.935L87.4573 169.081C81.6465 164.418 77.6121 158.119 75.9604 151.129C74.3086 144.14 75.1289 136.838 78.2979 130.322C81.4668 123.805 86.8133 118.426 93.5336 114.993C100.254 111.56 107.985 110.258 115.565 111.283L118.161 94.5153Z" fill="#C4C4C4" stroke="#969899" stroke-width="40" mask="url(#path-3-inside-2_1191_1686)"/>
<mask id="path-4-inside-3_1191_1686" fill="white">
<path d="M99.8409 105.112C99.7687 91.8514 104.967 79.1053 114.293 69.6776C123.619 60.2499 136.308 54.913 149.568 54.8409C162.829 54.7688 175.575 59.9674 185.003 69.293C194.43 78.6187 199.767 91.3076 199.839 104.568L182.898 104.66C182.85 95.893 179.321 87.5036 173.088 81.3379C166.855 75.1721 158.428 71.735 149.66 71.7827C140.893 71.8304 132.504 75.3589 126.338 81.5921C120.172 87.8253 116.735 96.2526 116.783 105.02L99.8409 105.112Z"/>
</mask>
<path d="M99.8409 105.112C99.7687 91.8514 104.967 79.1053 114.293 69.6776C123.619 60.2499 136.308 54.913 149.568 54.8409C162.829 54.7688 175.575 59.9674 185.003 69.293C194.43 78.6187 199.767 91.3076 199.839 104.568L182.898 104.66C182.85 95.893 179.321 87.5036 173.088 81.3379C166.855 75.1721 158.428 71.735 149.66 71.7827C140.893 71.8304 132.504 75.3589 126.338 81.5921C120.172 87.8253 116.735 96.2526 116.783 105.02L99.8409 105.112Z" fill="#C4C4C4" stroke="#969899" stroke-width="40" mask="url(#path-4-inside-3_1191_1686)"/>
<path d="M94 240C102.284 240 109 233.284 109 225C109 216.716 102.284 210 94 210C85.7157 210 79 216.716 79 225C79 233.284 85.7157 240 94 240Z" fill="#969899" fill-opacity="0.05" stroke="#969899" stroke-width="7" stroke-miterlimit="2.3662"/>
<path d="M150 288C158.284 288 165 281.284 165 273C165 264.716 158.284 258 150 258C141.716 258 135 264.716 135 273C135 281.284 141.716 288 150 288Z" fill="#969899" fill-opacity="0.05" stroke="#969899" stroke-width="7" stroke-miterlimit="2.3662"/>
<path d="M204 240C212.284 240 219 233.284 219 225C219 216.716 212.284 210 204 210C195.716 210 189 216.716 189 225C189 233.284 195.716 240 204 240Z" fill="#969899" fill-opacity="0.05" stroke="#969899" stroke-width="7" stroke-miterlimit="2.3662"/>
<rect x="146" y="185" width="7" height="73" fill="#969899" fill-opacity="0.7"/>
<rect x="79" y="52.9497" width="7" height="44.7924" transform="rotate(-45 79 52.9497)" fill="#969899" fill-opacity="0.7"/>
<rect x="218.673" y="48" width="7" height="44.7924" transform="rotate(45 218.673 48)" fill="#969899" fill-opacity="0.7"/>
<mask id="path-11-inside-4_1191_1686" fill="white">
<path d="M98 39V32L206 32V39L98 39Z"/>
</mask>
<path d="M98 42.5H106.1V35.5H98V42.5ZM116.9 42.5H133.1V35.5H116.9V42.5ZM143.9 42.5L160.1 42.5V35.5L143.9 35.5V42.5ZM170.9 42.5H187.1V35.5H170.9V42.5ZM197.9 42.5H206V35.5H197.9V42.5ZM98 46H106.1V32H98V46ZM116.9 46H133.1V32H116.9V46ZM143.9 46H160.1V32H143.9V46ZM170.9 46H187.1V32H170.9V46ZM197.9 46H206V32H197.9V46Z" fill="#969899" fill-opacity="0.7" mask="url(#path-11-inside-4_1191_1686)"/>
<path d="M168 185H175V222H190V229H168V185Z" fill="#969899" fill-opacity="0.7"/>
<path d="M132 185H125V222H110V229H132V185Z" fill="#969899" fill-opacity="0.7"/>
<rect width="24.7407" height="24.7407" rx="4" transform="matrix(-0.000100092 1 -0.865975 0.500087 98.1387 26.184)" fill="#969899"/>
<rect width="25.1772" height="25.1772" rx="4" transform="matrix(0.870919 0.491427 -0.870919 0.491427 75.9275 12)" fill="#969899"/>
<rect width="24.7407" height="24.7407" rx="4" transform="matrix(-0.000100118 -1 0.865975 0.500087 53.7136 50.9248)" fill="#969899"/>
<rect width="24.7407" height="24.7407" rx="4" transform="matrix(-0.000100092 1 -0.865975 0.500087 250.139 26.184)" fill="#969899"/>
<rect width="25.1772" height="25.1772" rx="4" transform="matrix(0.870919 0.491427 -0.870919 0.491427 227.927 12)" fill="#969899"/>
<rect width="24.7407" height="24.7407" rx="4" transform="matrix(-0.000100118 -1 0.865975 0.500087 205.714 50.9248)" fill="#969899"/>
</svg>
