<svg width="300" height="300" viewBox="0 0 300 300" fill="none" xmlns="http://www.w3.org/2000/svg">
<g clip-path="url(#clip0_1188_1626)">
<mask id="path-1-inside-1_1188_1626" fill="white">
<path d="M154.561 250.961C183.657 238.249 207.969 216.632 223.996 189.222C240.023 161.812 246.939 130.023 243.748 98.4316L227.318 100.091C230.158 128.205 224.004 156.494 209.741 180.887C195.478 205.279 173.843 224.517 147.949 235.829L154.561 250.961Z"/>
</mask>
<path d="M154.561 250.961C183.657 238.249 207.969 216.632 223.996 189.222C240.023 161.812 246.939 130.023 243.748 98.4316L227.318 100.091C230.158 128.205 224.004 156.494 209.741 180.887C195.478 205.279 173.843 224.517 147.949 235.829L154.561 250.961Z" fill="#C4C4C4" stroke="#003C74" stroke-width="40" mask="url(#path-1-inside-1_1188_1626)"/>
<mask id="path-2-inside-2_1188_1626" fill="white">
<path d="M241.142 115.998C221.289 117.372 201.478 112.792 184.243 102.843C167.008 92.8937 153.133 78.0286 144.394 60.1495L158 51.5C165.342 66.5209 177.755 80.6389 192.235 88.9975C206.715 97.356 223.359 101.204 240.039 100.05L241.142 115.998Z"/>
</mask>
<path d="M241.142 115.998C221.289 117.372 201.478 112.792 184.243 102.843C167.008 92.8937 153.133 78.0286 144.394 60.1495L158 51.5C165.342 66.5209 177.755 80.6389 192.235 88.9975C206.715 97.356 223.359 101.204 240.039 100.05L241.142 115.998Z" fill="#C4C4C4"/>
<path d="M241.142 115.998L261.095 114.617L262.476 134.569L242.524 135.95L241.142 115.998ZM144.394 60.1495L126.426 68.932L118.573 52.8654L133.664 43.2714L144.394 60.1495ZM158 51.5L147.27 34.6219L166.146 22.6219L175.968 42.7175L158 51.5ZM240.039 100.05L238.657 80.0974L258.61 78.7162L259.991 98.6685L240.039 100.05ZM242.524 135.95C218.7 137.599 194.926 132.103 174.244 120.164L194.242 85.5216C208.03 93.4808 223.879 97.1452 239.761 96.0458L242.524 135.95ZM174.244 120.164C153.562 108.225 136.912 90.3869 126.426 68.932L162.363 51.3669C169.354 65.6702 180.454 77.5623 194.242 85.5216L174.244 120.164ZM133.664 43.2714L147.27 34.6219L168.73 68.3781L155.124 77.0276L133.664 43.2714ZM175.968 42.7175C181.764 54.5751 191.579 65.5254 202.234 71.6763L182.236 106.319C163.932 95.7525 148.919 78.4666 140.032 60.2825L175.968 42.7175ZM202.234 71.6763C213.267 78.045 225.949 80.9771 238.657 80.0974L241.42 120.002C220.77 121.431 200.163 116.667 182.236 106.319L202.234 71.6763ZM259.991 98.6685L261.095 114.617L221.19 117.379L220.086 101.431L259.991 98.6685Z" fill="#003C74" mask="url(#path-2-inside-2_1188_1626)"/>
<mask id="path-4-inside-3_1188_1626" fill="white">
<path d="M62.3311 115.998C82.1842 117.372 101.996 112.792 119.231 102.843C136.466 92.8937 150.34 78.0286 159.079 60.1495L144.5 52.5C137.158 67.5209 125.718 80.6389 111.238 88.9975C96.7587 97.356 80.1143 101.204 63.4351 100.05L62.3311 115.998Z"/>
</mask>
<path d="M62.3311 115.998C82.1842 117.372 101.996 112.792 119.231 102.843C136.466 92.8937 150.34 78.0286 159.079 60.1495L144.5 52.5C137.158 67.5209 125.718 80.6389 111.238 88.9975C96.7587 97.356 80.1143 101.204 63.4351 100.05L62.3311 115.998Z" fill="#C4C4C4"/>
<path d="M62.3311 115.998L42.3789 114.617L40.9978 134.569L60.95 135.95L62.3311 115.998ZM159.079 60.1495L177.048 68.932L185.583 51.4697L168.372 42.4392L159.079 60.1495ZM144.5 52.5L153.792 34.7897L135.569 25.2281L126.532 43.7175L144.5 52.5ZM63.4351 100.05L64.8163 80.0974L44.864 78.7162L43.4829 98.6685L63.4351 100.05ZM60.95 135.95C84.7736 137.599 108.547 132.103 129.23 120.164L109.232 85.5216C95.4439 93.4808 79.5947 97.1452 63.7123 96.0458L60.95 135.95ZM129.23 120.164C149.912 108.225 166.561 90.3869 177.048 68.932L141.111 51.3669C134.12 65.6702 123.02 77.5623 109.232 85.5216L129.23 120.164ZM168.372 42.4392L153.792 34.7897L135.208 70.2103L149.787 77.8598L168.372 42.4392ZM126.532 43.7175C120.716 55.6161 111.86 65.5458 101.24 71.6763L121.237 106.319C139.577 95.732 153.601 79.4256 162.468 61.2825L126.532 43.7175ZM101.24 71.6763C90.2069 78.045 77.5248 80.9771 64.8163 80.0974L62.054 120.002C82.7038 121.431 103.31 116.667 121.237 106.319L101.24 71.6763ZM43.4829 98.6685L42.3789 114.617L82.2834 117.379L83.3874 101.431L43.4829 98.6685Z" fill="#003C74" mask="url(#path-4-inside-3_1188_1626)"/>
<mask id="path-6-inside-4_1188_1626" fill="white">
<path d="M145.454 250.961C116.358 238.249 92.0459 216.632 76.0187 189.222C59.9914 161.812 53.0756 130.023 56.2668 98.4316L72.6964 100.091C69.8565 128.205 76.011 156.494 90.2739 180.887C104.537 205.279 126.172 224.517 152.065 235.829L145.454 250.961Z"/>
</mask>
<path d="M145.454 250.961C116.358 238.249 92.0459 216.632 76.0187 189.222C59.9914 161.812 53.0756 130.023 56.2668 98.4316L72.6964 100.091C69.8565 128.205 76.011 156.494 90.2739 180.887C104.537 205.279 126.172 224.517 152.065 235.829L145.454 250.961Z" fill="#C4C4C4" stroke="#003C74" stroke-width="40" mask="url(#path-6-inside-4_1188_1626)"/>
<path d="M159 55C159 58.866 155.642 62 151.5 62C147.358 62 144 58.866 144 55C144 51.134 147.358 48 151.5 48C155.642 48 159 51.134 159 55Z" fill="#003C74"/>
<path d="M157 245C157 248.866 157 251.5 149.5 252C144.5 251.5 142 248.866 142 245C142 241.134 145.358 238 149.5 238C153.642 238 157 241.134 157 245Z" fill="#003C74"/>
<rect x="124" y="145" width="54" height="54" rx="12" stroke="#003C74" stroke-width="6"/>
<mask id="path-10-inside-5_1188_1626" fill="white">
<path d="M132.944 131.539C132.919 126.898 134.739 122.437 138.003 119.137C141.267 115.837 145.708 113.969 150.349 113.944C154.99 113.919 159.451 115.739 162.751 119.003C166.051 122.267 167.919 126.708 167.944 131.349L161.975 131.381C161.959 128.323 160.728 125.397 158.554 123.246C156.379 121.095 153.44 119.896 150.381 119.913C147.323 119.929 144.397 121.16 142.246 123.334C140.095 125.509 138.896 128.448 138.913 131.507L132.944 131.539Z"/>
</mask>
<path d="M132.944 131.539C132.919 126.898 134.739 122.437 138.003 119.137C141.267 115.837 145.708 113.969 150.349 113.944C154.99 113.919 159.451 115.739 162.751 119.003C166.051 122.267 167.919 126.708 167.944 131.349L161.975 131.381C161.959 128.323 160.728 125.397 158.554 123.246C156.379 121.095 153.44 119.896 150.381 119.913C147.323 119.929 144.397 121.16 142.246 123.334C140.095 125.509 138.896 128.448 138.913 131.507L132.944 131.539Z" fill="#C4C4C4" stroke="#003C74" stroke-width="40" mask="url(#path-10-inside-5_1188_1626)"/>
<rect x="133" y="130" width="6" height="13" fill="#003C74"/>
<rect x="162" y="131" width="6" height="12" fill="#003C74"/>
</g>
<defs>
<clipPath id="clip0_1188_1626">
<rect width="300" height="300" fill="white"/>
</clipPath>
</defs>
</svg>
