<svg width="50" height="50" viewBox="0 0 50 50" fill="none" xmlns="http://www.w3.org/2000/svg">
<mask id="path-1-inside-1_1499_1976" fill="white">
<path d="M11.4111 31.3023C10.2473 31.7445 9.65109 33.0541 10.2213 34.1608C12.1054 37.8174 15.0815 40.8219 18.7621 42.7387C23.1124 45.0042 28.1436 45.5922 32.899 44.3907C37.6544 43.1893 41.8026 40.2822 44.5547 36.2223C47.3069 32.1624 48.4713 27.2327 47.8264 22.3704C47.1815 17.5081 44.7723 13.0523 41.057 9.85022C37.3416 6.6481 32.5791 4.92291 27.6749 5.00264C22.7707 5.08238 18.0667 6.96149 14.4574 10.2827C11.4037 13.0927 9.3137 16.7692 8.44799 20.7904C8.18596 22.0075 9.10293 23.1164 10.3418 23.2399V23.2399C11.5807 23.3634 12.6689 22.4522 12.9707 21.2444C13.7006 18.3234 15.2709 15.6611 17.5103 13.6004C20.306 11.0279 23.9495 9.57241 27.7482 9.51065C31.5468 9.44888 35.2357 10.7852 38.1135 13.2654C40.9913 15.7457 42.8574 19.197 43.3569 22.9632C43.8564 26.7294 42.9546 30.5478 40.8228 33.6925C38.691 36.8372 35.478 39.0889 31.7946 40.0195C28.1112 40.9501 24.2142 40.4947 20.8446 38.7399C18.1455 37.3342 15.9354 35.1733 14.4693 32.5436C13.8631 31.4562 12.575 30.8602 11.4111 31.3023V31.3023Z"/>
</mask>
<path d="M11.4111 31.3023C10.2473 31.7445 9.65109 33.0541 10.2213 34.1608C12.1054 37.8174 15.0815 40.8219 18.7621 42.7387C23.1124 45.0042 28.1436 45.5922 32.899 44.3907C37.6544 43.1893 41.8026 40.2822 44.5547 36.2223C47.3069 32.1624 48.4713 27.2327 47.8264 22.3704C47.1815 17.5081 44.7723 13.0523 41.057 9.85022C37.3416 6.6481 32.5791 4.92291 27.6749 5.00264C22.7707 5.08238 18.0667 6.96149 14.4574 10.2827C11.4037 13.0927 9.3137 16.7692 8.44799 20.7904C8.18596 22.0075 9.10293 23.1164 10.3418 23.2399V23.2399C11.5807 23.3634 12.6689 22.4522 12.9707 21.2444C13.7006 18.3234 15.2709 15.6611 17.5103 13.6004C20.306 11.0279 23.9495 9.57241 27.7482 9.51065C31.5468 9.44888 35.2357 10.7852 38.1135 13.2654C40.9913 15.7457 42.8574 19.197 43.3569 22.9632C43.8564 26.7294 42.9546 30.5478 40.8228 33.6925C38.691 36.8372 35.478 39.0889 31.7946 40.0195C28.1112 40.9501 24.2142 40.4947 20.8446 38.7399C18.1455 37.3342 15.9354 35.1733 14.4693 32.5436C13.8631 31.4562 12.575 30.8602 11.4111 31.3023V31.3023Z" stroke="#252525" stroke-width="6" mask="url(#path-1-inside-1_1499_1976)"/>
<rect x="2" y="19.8302" width="5.08416" height="12.2608" rx="2.54208" transform="rotate(-50 2 19.8302)" fill="#252525"/>
<rect width="4.82121" height="11.8078" rx="2.4106" transform="matrix(-0.642788 -0.766044 -0.766044 0.642788 20.2592 19.8302)" fill="#252525"/>
</svg>
