<svg width="50" height="50" viewBox="0 0 50 50" fill="none" xmlns="http://www.w3.org/2000/svg">
<g clip-path="url(#clip0_1419_1924)">
<mask id="path-1-inside-1_1419_1924" fill="white">
<path d="M42 21C42 32.598 32.598 42 21 42C9.40202 42 0 32.598 0 21C0 9.40202 9.40202 0 21 0C32.598 0 42 9.40202 42 21ZM7.37506 21C7.37506 28.5248 13.4752 34.6249 21 34.6249C28.5248 34.6249 34.6249 28.5248 34.6249 21C34.6249 13.4752 28.5248 7.37506 21 7.37506C13.4752 7.37506 7.37506 13.4752 7.37506 21Z"/>
</mask>
<path d="M42 21C42 32.598 32.598 42 21 42C9.40202 42 0 32.598 0 21C0 9.40202 9.40202 0 21 0C32.598 0 42 9.40202 42 21ZM7.37506 21C7.37506 28.5248 13.4752 34.6249 21 34.6249C28.5248 34.6249 34.6249 28.5248 34.6249 21C34.6249 13.4752 28.5248 7.37506 21 7.37506C13.4752 7.37506 7.37506 13.4752 7.37506 21Z" stroke="#6E6E75" stroke-width="12" mask="url(#path-1-inside-1_1419_1924)"/>
<rect x="29" y="34.3941" width="7.6284" height="23.3426" rx="3.8142" transform="rotate(-45 29 34.3941)" fill="#6E6E75"/>
</g>
<defs>
<clipPath id="clip0_1419_1924">
<rect width="50" height="50" fill="white" transform="translate(50 50) rotate(-180)"/>
</clipPath>
</defs>
</svg>
