<svg width="100" height="50" viewBox="0 0 100 50" fill="none" xmlns="http://www.w3.org/2000/svg">
<g clip-path="url(#clip0_1385_1883)">
<rect y="28" width="100" height="22" rx="11" fill="white"/>
<rect x="3" y="31" width="66" height="16" rx="8" fill="#0071DA"/>
<rect x="3" y="31" width="94" height="16" rx="8" fill="#0071DA" fill-opacity="0.07"/>
<path d="M21.312 20.175C20.0953 20.175 18.9953 19.9667 18.012 19.55C17.0453 19.1333 16.2787 18.5333 15.712 17.75C15.1453 16.9667 14.8537 16.0417 14.837 14.975H18.587C18.637 15.6917 18.887 16.2583 19.337 16.675C19.8037 17.0917 20.437 17.3 21.237 17.3C22.0537 17.3 22.6953 17.1083 23.162 16.725C23.6287 16.325 23.862 15.8083 23.862 15.175C23.862 14.6583 23.7037 14.2333 23.387 13.9C23.0703 13.5667 22.6703 13.3083 22.187 13.125C21.7203 12.925 21.0703 12.7083 20.237 12.475C19.1037 12.1417 18.1787 11.8167 17.462 11.5C16.762 11.1667 16.1537 10.675 15.637 10.025C15.137 9.35833 14.887 8.475 14.887 7.375C14.887 6.34167 15.1453 5.44167 15.662 4.675C16.1787 3.90833 16.9037 3.325 17.837 2.925C18.7703 2.50833 19.837 2.3 21.037 2.3C22.837 2.3 24.2953 2.74167 25.412 3.625C26.5453 4.49167 27.1703 5.70833 27.287 7.275H23.437C23.4037 6.675 23.1453 6.18333 22.662 5.8C22.1953 5.4 21.5703 5.2 20.787 5.2C20.1037 5.2 19.5537 5.375 19.137 5.725C18.737 6.075 18.537 6.58333 18.537 7.25C18.537 7.71667 18.687 8.10833 18.987 8.425C19.3037 8.725 19.687 8.975 20.137 9.175C20.6037 9.35833 21.2537 9.575 22.087 9.825C23.2203 10.1583 24.1453 10.4917 24.862 10.825C25.5787 11.1583 26.1953 11.6583 26.712 12.325C27.2287 12.9917 27.487 13.8667 27.487 14.95C27.487 15.8833 27.2453 16.75 26.762 17.55C26.2787 18.35 25.5703 18.9917 24.637 19.475C23.7037 19.9417 22.5953 20.175 21.312 20.175ZM38.6214 20.175C36.9881 20.175 35.4881 19.7917 34.1214 19.025C32.7547 18.2583 31.6714 17.2 30.8714 15.85C30.0714 14.4833 29.6714 12.9417 29.6714 11.225C29.6714 9.525 30.0714 8 30.8714 6.65C31.6714 5.28333 32.7547 4.21667 34.1214 3.45C35.4881 2.68333 36.9881 2.3 38.6214 2.3C40.2714 2.3 41.7714 2.68333 43.1214 3.45C44.4881 4.21667 45.5631 5.28333 46.3464 6.65C47.1464 8 47.5464 9.525 47.5464 11.225C47.5464 12.9417 47.1464 14.4833 46.3464 15.85C45.5631 17.2 44.4881 18.2583 43.1214 19.025C41.7547 19.7917 40.2547 20.175 38.6214 20.175ZM38.6214 17.05C39.6714 17.05 40.5964 16.8167 41.3964 16.35C42.1964 15.8667 42.8214 15.1833 43.2714 14.3C43.7214 13.4167 43.9464 12.3917 43.9464 11.225C43.9464 10.0583 43.7214 9.04167 43.2714 8.175C42.8214 7.29167 42.1964 6.61667 41.3964 6.15C40.5964 5.68333 39.6714 5.45 38.6214 5.45C37.5714 5.45 36.6381 5.68333 35.8214 6.15C35.0214 6.61667 34.3964 7.29167 33.9464 8.175C33.4964 9.04167 33.2714 10.0583 33.2714 11.225C33.2714 12.3917 33.4964 13.4167 33.9464 14.3C34.3964 15.1833 35.0214 15.8667 35.8214 16.35C36.6381 16.8167 37.5714 17.05 38.6214 17.05ZM58.2503 20.175C56.617 20.175 55.117 19.7917 53.7503 19.025C52.3836 18.2583 51.3003 17.2 50.5003 15.85C49.7003 14.4833 49.3003 12.9417 49.3003 11.225C49.3003 9.525 49.7003 8 50.5003 6.65C51.3003 5.28333 52.3836 4.21667 53.7503 3.45C55.117 2.68333 56.617 2.3 58.2503 2.3C59.9003 2.3 61.4003 2.68333 62.7503 3.45C64.117 4.21667 65.192 5.28333 65.9753 6.65C66.7753 8 67.1753 9.525 67.1753 11.225C67.1753 12.9417 66.7753 14.4833 65.9753 15.85C65.192 17.2 64.117 18.2583 62.7503 19.025C61.3836 19.7917 59.8836 20.175 58.2503 20.175ZM58.2503 17.05C59.3003 17.05 60.2253 16.8167 61.0253 16.35C61.8253 15.8667 62.4503 15.1833 62.9003 14.3C63.3503 13.4167 63.5753 12.3917 63.5753 11.225C63.5753 10.0583 63.3503 9.04167 62.9003 8.175C62.4503 7.29167 61.8253 6.61667 61.0253 6.15C60.2253 5.68333 59.3003 5.45 58.2503 5.45C57.2003 5.45 56.267 5.68333 55.4503 6.15C54.6503 6.61667 54.0253 7.29167 53.5753 8.175C53.1253 9.04167 52.9003 10.0583 52.9003 11.225C52.9003 12.3917 53.1253 13.4167 53.5753 14.3C54.0253 15.1833 54.6503 15.8667 55.4503 16.35C56.267 16.8167 57.2003 17.05 58.2503 17.05ZM84.7042 20H81.2042L73.2792 8.025V20H69.7792V2.525H73.2792L81.2042 14.525V2.525H84.7042V20Z" fill="#0071DA"/>
</g>
<defs>
<clipPath id="clip0_1385_1883">
<rect width="50" height="100" fill="white" transform="translate(100) rotate(90)"/>
</clipPath>
</defs>
</svg>
